<?xml version="1.0" encoding="utf-8"?>
<svg viewBox="0 0 30 30" width="30px" height="30px" xmlns="http://www.w3.org/2000/svg" xmlns:bx="https://boxy-svg.com">
  <rect width="16" height="16" id="icon-bound" fill="none"/>
  <path d="M 27.778 0 L 2.212 0 C 0.993 0 0 0.969 0 2.162 L 0 27.838 C 0 29.035 0.993 30 2.212 30 L 27.78 30 C 29.001 30 30 29.035 30 27.838 L 30 2.162 C 30 0.969 29.001 0 27.778 0 Z M 8.898 25.564 L 4.446 25.564 L 4.446 11.248 L 8.901 11.248 L 8.901 25.564 L 8.898 25.564 Z M 6.673 9.291 C 5.244 9.291 4.092 8.134 4.092 6.709 C 4.092 5.285 5.244 4.129 6.673 4.129 C 8.097 4.129 9.253 5.285 9.253 6.709 C 9.253 8.135 8.098 9.291 6.673 9.291 Z M 25.562 25.564 L 21.117 25.564 L 21.117 18.604 C 21.117 16.943 21.084 14.807 18.804 14.807 C 16.488 14.807 16.137 16.615 16.137 18.482 L 16.137 25.565 L 11.691 25.565 L 11.691 11.248 L 15.954 11.248 L 15.954 13.204 L 16.017 13.204 C 16.611 12.079 18.062 10.892 20.226 10.892 C 24.728 10.892 25.56 13.856 25.56 17.713 L 25.56 25.564 L 25.562 25.564 Z" style="paint-order: fill; fill: rgb(255, 255, 255);" bx:origin="0.5 0.5"/>
</svg>