<?xml version="1.0" encoding="utf-8"?>
<svg id="svg" version="1.1" width="400" height="36.641975308641975" viewBox="0, 0, 400,36.641975308641975" xmlns="http://www.w3.org/2000/svg">
  <path id="path0" d="M 20.583 3.633 C 20.217 3.7809999999999997 18.679 4.62 17.167 5.5 C 15.654 6.379 14.135 7.243 13.792 7.42 C 13.448 7.598 13.167 7.8 13.167 7.871 C 13.167 7.942 13.073 8 12.958 8 C 12.844 8 11.963 8.473 11 9.051 C 10.037 9.629 8.837 10.323 8.333 10.593 C 7.829 10.863 7.392 11.14 7.361 11.208 C 7.3309999999999995 11.277 7.235 11.333 7.148 11.333 C 6.999 11.333 3.5 13.325 3.5 13.41 C 3.5 13.432 4.052 13.414 4.727 13.371 C 6.519 13.256 6.339 13.175 13.6 17.384 C 15.215 18.321 15.184 18.318 16.405 17.583 C 16.938 17.262 17.412 17 17.46 17 C 17.507 17 18.632 16.355 19.96 15.566 C 22.068 14.314 23.076 13.745 24.349 13.085 C 24.524 12.995 24.667 12.864 24.667 12.794 C 24.667 12.724 24.769 12.667 24.895 12.667 C 25.343 12.667 26.543 11.415 26.969 10.505 C 28.896 6.3870000000000005 24.774 1.951 20.583 3.633" stroke="none" fill-rule="evenodd" style="fill: rgb(246, 38, 23);"/>
  <path id="path0" d="M 45.387 19.144 C 44.638 19.59 43.907 20 43.764 20.055 C 43.62 20.11 42.312 20.862000000000002 40.856 21.726 C 39.401 22.59 38.069 23.346 37.896 23.405 C 34.678 24.508 33.647 29.324 36.103 31.78 C 38.167 33.845 40.363 33.722 44.449 31.314 C 45.714 30.567 47.069 29.802 47.458 29.612 C 47.848 29.422 48.167 29.207 48.167 29.133 C 48.167 29.06 48.252 29 48.356 29 C 48.46 29 49.538 28.411 50.751 27.69 C 51.965 26.97 53.192 26.276 53.479 26.149 C 53.765 26.022 54 25.862000000000002 54 25.793 C 54 25.723 54.078 25.667 54.174 25.667 C 54.317 25.667 58.667 23.189 58.666 23.108 C 58.666 23.094 57.93 23.083 57.029 23.083 L 55.392 23.083 L 51.264 20.708 C 46.476 17.954 47.106 18.122 45.387 19.144" stroke="none" fill-rule="evenodd" style="fill: rgb(255, 217, 2);"/>
  <path id="path1" d="M 222.421 7.011 C 219.51 7.498 217.457 9.867 217.45 12.75 C 217.442 15.874 218.818 17.278 223.583 19.002 C 227.606 20.458 228.667 21.379 228.667 23.417 C 228.667 27.08 223.217 28.411 220.673 25.369 C 219.937 24.49 219.554 23.829 219.267 22.947 C 219.159 22.614 218.943 22.645 217.75 23.162 C 217.383 23.321 216.958 23.495 216.805 23.549 C 216.445 23.675 216.538 24.109 217.219 25.476 C 219.672 30.403 226.911 31.208 230.458 26.948 C 230.665 26.7 230.834 26.442 230.834 26.374 C 230.835 26.306 230.962 26.025 231.117 25.75 C 231.652 24.802 231.533 21.627 230.921 20.522 C 230.025 18.905 227.598 17.191 225.333 16.577 C 225.287 16.565 225.137 16.513 225 16.462 C 224.862 16.412 224.375 16.238 223.917 16.077 C 219.812 14.636 218.999 12.252 221.866 10.059 C 223.553 8.768 226.937 9.756 228.033 11.86 C 228.378 12.522 228.489 12.598 228.758 12.359 C 228.845 12.282 229.348 12.048 229.875 11.84 C 230.926 11.425 230.937 11.405 230.601 10.599 C 229.492 7.945 225.999 6.413 222.421 7.011 M 335.165 6.985 C 323.86 8.579 322.255 24.973 333.005 29.042 C 335.092 29.832 340.296 29.902 340.763 29.146 C 340.812 29.066 340.98 28.999 341.135 28.998 C 341.84 28.993 343.959 27.688 345.222 26.482 C 345.963 25.774 345.943 25.707 344.65 24.53 L 343.858 23.81 L 343.168 24.479 C 336.648 30.807 326.204 24.315 328.898 15.61 C 330.705 9.768 338.026 7.52 342.246 11.511 C 343.315 12.522 343.224 12.526 344.323 11.413 L 345.23 10.496 L 344.573 9.813 C 342.421 7.577 338.762 6.477 335.165 6.985 M 76.917 18.333 L 76.917 29.333 L 80.386 29.333 C 84.984 29.333 86.858 29.057 88.928 28.074 C 97.208 24.144 96.453 10.826 87.789 7.973 C 86.302 7.484 84.734 7.344 80.667 7.338 L 76.917 7.333 L 76.917 18.333 M 144 18.333 L 144 29.333 L 145.417 29.333 L 146.833 29.333 L 146.833 18.333 L 146.833 7.333 L 145.417 7.333 L 144 7.333 L 144 18.333 M 271.994 11.458 L 271.988 15.583 L 271.619 15.151 C 269.365 12.512 264.68 12.451 261.813 15.024 C 259.109 17.451 258.464 23.364 260.583 26.306 C 263.423 30.247 268.221 30.898 271.458 27.779 L 272.167 27.097 L 272.167 28.215 L 272.167 29.333 L 273.5 29.333 L 274.833 29.333 L 274.833 18.333 L 274.833 7.333 L 273.417 7.333 L 272 7.333 L 271.994 11.458 M 347.874 18.292 L 347.917 29.25 L 349.292 29.298 L 350.667 29.347 L 350.667 18.34 L 350.667 7.333 L 349.249 7.333 L 347.831 7.333 L 347.874 18.292 M 370.167 18.333 L 370.167 29.333 L 371.5 29.333 L 372.833 29.333 L 372.833 28.236 L 372.833 27.139 L 373.481 27.778 C 374.66 28.94 375.452 29.343 377.167 29.654 C 378.605 29.915 381.307 29.363 382 28.666 C 382.046 28.62 382.383 28.378 382.75 28.127 C 383.117 27.877 383.603 27.39 383.832 27.044 C 384.06 26.699 384.287 26.379 384.336 26.333 C 385.455 25.281 386.047 20.488 385.302 18.5 C 383.312 13.182 377.125 11.281 373.603 14.905 L 372.914 15.614 L 372.976 11.474 L 373.037 7.333 L 371.602 7.333 L 370.167 7.333 L 370.167 18.333 M 234.944 9.278 C 234.883 9.339 234.833 10.351 234.833 11.528 L 234.833 13.667 L 233.5 13.667 L 232.167 13.667 L 232.167 14.917 L 232.167 16.167 L 233.486 16.167 L 234.805 16.167 L 234.861 21.375 C 234.916 26.545 234.92 26.589 235.332 27.396 C 236.25 29.194 238.33 30.11 240.417 29.637 L 241.417 29.41 L 241.465 28.038 C 241.509 26.783 241.42 26.469 241.106 26.783 C 240.696 27.193 239.383 27.216 238.686 26.824 C 237.747 26.296 237.772 26.441 237.703 21.047 L 237.64 16.178 L 239.529 16.131 L 241.417 16.083 L 241.466 14.875 L 241.515 13.667 L 239.591 13.667 L 237.667 13.667 L 237.667 11.417 L 237.667 9.167 L 236.361 9.167 C 235.643 9.167 235.006 9.217 234.944 9.278 M 311.5 11.417 L 311.5 13.667 L 310.159 13.667 L 308.819 13.667 L 308.868 14.875 L 308.917 16.083 L 310.208 16.132 L 311.5 16.181 L 311.521 21.09 C 311.532 23.791 311.553 26.056 311.567 26.125 C 312.086 28.737 314.441 30.236 317.083 29.637 L 318.083 29.41 L 318.132 28.038 C 318.158 27.284 318.137 26.667 318.085 26.667 C 318.032 26.667 317.72 26.779 317.391 26.917 C 316.639 27.231 316.196 27.232 315.451 26.92 C 314.412 26.486 314.365 26.236 314.341 20.977 C 314.329 18.393 314.292 16.235 314.258 16.181 C 314.225 16.127 315.053 16.107 316.099 16.135 L 318 16.187 L 318 14.927 L 318 13.667 L 316.167 13.667 L 314.333 13.667 L 314.333 11.417 L 314.333 9.167 L 312.917 9.167 L 311.5 9.167 L 311.5 11.417 M 86.461 10.387 C 92.032 11.982 93.853 20.251 89.539 24.366 C 87.759 26.063 86.471 26.483 82.625 26.615 L 79.667 26.717 L 79.667 18.338 L 79.667 9.959 L 82.625 10.047 C 84.508 10.103 85.902 10.227 86.461 10.387 M 101 13.48 C 99.607 13.984 98.495 14.826 97.393 16.209 C 95.756 18.263 95.46 23.093 96.819 25.583 C 97.458 26.756 98.815 28.324 99.196 28.331 C 99.259 28.332 99.409 28.428 99.53 28.545 C 99.806 28.81 100.948 29.316 101.5 29.418 C 101.729 29.461 102.307 29.576 102.784 29.675 C 105.391 30.213 109.282 28.407 110.375 26.15 C 110.707 25.466 110.697 25.451 109.59 24.927 C 108.409 24.368 108.356 24.379 107.632 25.331 C 105.026 28.753 99.479 27.115 98.754 22.708 L 98.637 22 L 104.843 22 L 111.048 22 L 110.948 20.375 C 110.793 17.868 110.281 16.662 108.69 15.055 C 106.979 13.327 103.431 12.6 101 13.48 M 131.825 13.472 C 128.357 14.742 126.333 18.347 126.76 22.493 C 126.864 23.502 127.417 25.474 127.65 25.667 C 127.705 25.712 127.863 25.973 128 26.245 C 128.263 26.765 129.768 28.333 130.005 28.333 C 130.081 28.333 130.242 28.427 130.363 28.542 C 130.768 28.925 131.761 29.297 133.121 29.574 C 136.171 30.196 139.165 29.007 141.029 26.433 C 141.651 25.574 141.658 25.591 140.461 25.007 C 139.391 24.485 139 24.389 139 24.65 C 139 24.732 138.642 25.165 138.205 25.612 C 135.239 28.641 130.249 26.952 129.568 22.689 L 129.457 22 L 135.645 22 L 141.833 22 L 141.833 20.938 C 141.833 17.505 140.133 14.74 137.339 13.631 C 136.104 13.141 132.977 13.051 131.825 13.472 M 154.333 13.48 C 152.43 14.171 150.563 15.707 149.938 17.096 C 149.777 17.456 149.575 17.9 149.492 18.083 C 148.255 20.787 149.008 25.027 151.127 27.288 C 153.253 29.557 157.73 30.46 160.224 29.124 C 161.926 28.213 163.833 26.482 163.833 25.849 C 163.833 25.749 163.908 25.667 164 25.667 C 164.092 25.667 164.167 25.573 164.168 25.458 C 164.168 25.344 164.277 25.042 164.41 24.787 C 164.967 23.72 165.156 21.237 164.819 19.413 C 163.99 14.93 158.656 11.912 154.333 13.48 M 172.572 13.476 C 171.732 13.815 171.162 14.188 170.32 14.949 L 169.667 15.539 L 169.667 14.603 L 169.667 13.667 L 168.333 13.667 L 167 13.667 L 167 24.75 L 167 35.833 L 168.333 35.833 L 169.667 35.833 L 169.667 31.583 C 169.667 29.246 169.692 27.333 169.723 27.333 C 169.754 27.333 170.099 27.638 170.491 28.011 C 175.98 33.232 184.55 26.271 182.096 18.584 C 180.769 14.429 176.232 11.995 172.572 13.476 M 189 13.455 C 187.709 13.907 185.5 15.608 185.5 16.152 C 185.5 16.252 185.438 16.333 185.363 16.333 C 185.287 16.333 185.069 16.652 184.878 17.042 C 182.875 21.123 183.92 26.144 187.25 28.433 C 189.583 30.037 194.125 30.115 195.948 28.583 C 196.057 28.492 196.398 28.235 196.706 28.013 C 197.77 27.244 198.818 25.656 198.448 25.371 C 197.692 24.786 196.3 24.426 196.066 24.754 C 194.246 27.309 191.33 27.925 188.919 26.264 C 187.825 25.51 186.931 24.084 186.744 22.792 L 186.629 22 L 192.838 22 L 199.046 22 L 198.96 20.542 C 198.642 15.155 193.864 11.755 189 13.455 M 206.215 13.599 C 205.732 13.833 205.011 14.392 204.59 14.861 L 203.833 15.703 L 203.833 14.685 L 203.833 13.667 L 202.5 13.667 L 201.167 13.667 L 201.167 21.5 L 201.167 29.333 L 202.574 29.333 L 203.982 29.333 L 204.033 24.292 C 204.081 19.439 204.098 19.221 204.462 18.482 C 205.469 16.438 207.169 15.542 209.077 16.051 C 209.66 16.206 210.182 16.333 210.236 16.333 C 210.535 16.333 210.322 13.506 210.011 13.339 C 209.361 12.991 207.16 13.142 206.215 13.599 M 282.158 13.408 C 278.079 14.911 276.008 19.279 277.159 23.951 C 278.568 29.669 285.918 31.736 290.096 27.588 C 291.933 25.764 291.967 25.572 290.56 24.927 C 289.337 24.367 289.337 24.367 288.628 25.317 C 287.191 27.242 283.424 27.781 281.92 26.277 C 281.801 26.158 281.489 25.878 281.227 25.655 C 280.575 25.101 280.244 24.55 279.932 23.498 C 279.441 21.845 278.84 22 285.747 22 L 291.827 22 L 291.934 21.573 C 292.081 20.989 291.719 18.306 291.416 17.724 C 291.28 17.463 291.168 17.189 291.168 17.113 C 291.163 16.498 289.431 14.628 288.303 14.019 C 286.729 13.171 283.636 12.864 282.158 13.408 M 300 13.361 C 298.623 13.987 298.178 14.273 297.542 14.94 L 296.833 15.684 L 296.833 14.675 L 296.833 13.667 L 295.5 13.667 L 294.167 13.667 L 294.167 21.5 L 294.167 29.333 L 295.573 29.333 L 296.979 29.333 L 297.035 24.125 C 297.097 18.447 297.07 18.619 298.147 17.188 C 299.492 15.402 302.51 15.142 304.016 16.683 C 304.886 17.573 305 18.436 305 24.151 L 305 29.333 L 306.333 29.333 L 307.667 29.333 L 307.667 23.473 C 307.667 15.963 307.411 15.063 304.917 13.772 C 303.804 13.196 300.897 12.953 300 13.361 M 390.667 13.471 C 385.145 15.525 386.191 21.092 392.333 22.344 C 395.189 22.926 396.667 23.841 396.667 25.029 C 396.667 27.976 390.831 27.874 389.421 24.902 C 389.11 24.247 389.092 24.248 387.569 24.945 C 386.552 25.41 386.496 25.581 387.076 26.462 C 390.324 31.4 399.086 30.58 399.464 25.301 C 399.657 22.595 398.081 21.07 394.083 20.095 C 391.453 19.453 390.738 19.139 390.264 18.414 C 388.614 15.897 394.078 14.534 396.142 16.948 L 396.776 17.689 L 397.872 17.187 C 399.253 16.555 399.262 16.535 398.654 15.616 C 397.292 13.561 393.305 12.49 390.667 13.471 M 111.334 13.875 C 111.335 13.99 111.432 14.271 111.55 14.5 C 111.668 14.729 111.938 15.404 112.152 16 C 112.502 16.979 112.917 18 113.338 18.917 C 113.422 19.1 113.645 19.662 113.833 20.167 C 114.022 20.671 114.245 21.233 114.33 21.417 C 114.414 21.6 114.872 22.725 115.346 23.917 C 116.134 25.895 116.443 26.638 117.077 28.083 C 117.198 28.358 117.347 28.752 117.409 28.958 C 117.515 29.308 117.615 29.333 118.886 29.33 L 120.25 29.328 L 120.651 28.372 C 120.871 27.847 121.147 27.192 121.264 26.917 C 122.233 24.644 122.833 23.161 122.833 23.04 C 122.833 22.961 123.021 22.507 123.25 22.032 C 123.479 21.557 123.667 21.123 123.667 21.068 C 123.667 21.012 123.774 20.731 123.905 20.442 C 124.289 19.597 125.195 17.432 125.24 17.25 C 125.263 17.158 125.376 16.858 125.491 16.583 C 125.606 16.308 125.798 15.821 125.918 15.5 C 126.038 15.179 126.256 14.635 126.403 14.292 L 126.671 13.667 L 125.183 13.667 L 123.694 13.667 L 123.402 14.458 C 122.881 15.869 121.994 18.076 121.828 18.373 C 121.739 18.532 121.666 18.757 121.666 18.873 C 121.665 18.989 121.567 19.271 121.447 19.5 C 121.328 19.729 121.016 20.517 120.754 21.25 C 120.492 21.983 120.226 22.658 120.163 22.75 C 120.101 22.842 119.84 23.5 119.584 24.213 C 119.009 25.815 118.934 25.864 118.57 24.876 C 118.41 24.44 118.216 24.012 118.139 23.925 C 118.063 23.838 118 23.662 118 23.534 C 118 23.405 117.896 23.064 117.768 22.775 C 117.528 22.233 117.294 21.646 117.259 21.5 C 117.176 21.156 116.584 19.719 116.472 19.592 C 116.396 19.505 116.333 19.328 116.333 19.2 C 116.333 19.072 116.23 18.731 116.103 18.442 C 115.977 18.153 115.71 17.504 115.511 17 C 115.312 16.496 115.084 15.933 115.005 15.75 C 114.926 15.567 114.728 15.023 114.565 14.542 L 114.267 13.667 L 112.8 13.667 C 111.737 13.667 111.334 13.724 111.334 13.875 M 243.707 19.625 C 243.773 26.246 243.806 26.46 244.989 27.869 C 247.011 30.277 251.362 30.336 253.806 27.987 L 254.5 27.321 L 254.5 28.327 L 254.5 29.333 L 255.833 29.333 L 257.167 29.333 L 257.167 21.5 L 257.167 13.667 L 255.848 13.667 L 254.53 13.667 L 254.467 18.625 L 254.405 23.583 L 253.931 24.547 C 252.276 27.907 247.776 28.096 246.69 24.85 C 246.564 24.474 246.5 22.501 246.5 18.975 L 246.5 13.667 L 245.074 13.667 L 243.647 13.667 L 243.707 19.625 M 353.671 19.479 C 353.684 25.848 353.714 26.072 354.773 27.672 C 356.561 30.373 362.193 30.336 364.13 27.609 L 364.5 27.088 L 364.5 28.211 L 364.5 29.333 L 365.833 29.333 L 367.167 29.333 L 367.167 21.5 L 367.167 13.667 L 365.759 13.667 L 364.351 13.667 L 364.297 18.792 C 364.245 23.684 364.226 23.947 363.88 24.583 C 362.673 26.804 360.49 27.698 358.397 26.828 C 356.572 26.07 356.337 25.147 356.335 18.708 L 356.333 13.667 L 354.996 13.667 L 353.659 13.667 L 353.671 19.479 M 105.947 16.268 C 106.876 16.842 107.57 17.768 107.899 18.875 L 108.134 19.667 L 103.484 19.667 C 100.926 19.667 98.834 19.61 98.835 19.542 C 98.84 19.247 99.822 17.509 100.266 17.011 C 101.545 15.572 104.25 15.219 105.947 16.268 M 136.918 16.429 C 137.919 17.106 138.545 18.019 138.767 19.125 L 138.875 19.667 L 134.271 19.667 C 129.697 19.667 129.029 19.58 129.821 19.091 C 129.905 19.039 130.023 18.773 130.083 18.501 C 130.621 16.05 134.581 14.85 136.918 16.429 M 159.167 16.158 C 164.287 18.749 162.596 27.167 156.954 27.167 C 153.287 27.167 150.889 23.558 151.921 19.593 C 152.396 17.77 153.579 16.562 155.667 15.768 C 156.263 15.541 158.424 15.782 159.167 16.158 M 176.765 16.215 C 180.888 18.307 180.53 25.224 176.214 26.863 C 174.738 27.424 173.391 27.213 171.699 26.157 C 170.63 25.488 169.667 23.243 169.667 21.417 C 169.667 17.172 173.343 14.478 176.765 16.215 M 193.292 16.001 C 194.637 16.473 195.594 17.615 195.912 19.125 L 196.026 19.667 L 191.43 19.667 C 186.864 19.667 186.196 19.58 186.987 19.091 C 187.072 19.039 187.189 18.777 187.248 18.509 C 187.71 16.404 190.796 15.124 193.292 16.001 M 269.102 16.133 C 274.023 18.646 272.471 27.167 267.092 27.167 C 262.5 27.167 260.285 20.699 263.667 17.16 C 265.064 15.697 267.389 15.258 269.102 16.133 M 286.75 16.173 C 287.679 16.721 288.153 17.261 288.608 18.29 C 289.264 19.774 289.591 19.667 284.413 19.667 L 279.827 19.667 L 279.937 19.208 C 280.15 18.32 282.333 15.458 282.333 16.066 C 282.333 16.113 282.577 16.04 282.875 15.905 C 283.721 15.522 285.901 15.673 286.75 16.173 M 379.581 15.998 C 379.72 16.113 379.833 16.157 379.833 16.095 C 379.833 16.034 380.115 16.19 380.458 16.444 C 384.693 19.563 383.088 26.783 378.083 27.127 C 372.139 27.535 370.873 17.411 376.667 15.802 C 377.299 15.627 379.295 15.761 379.581 15.998" stroke="none" fill-rule="evenodd" style="fill: rgb(208, 208, 208);"/>
  <path id="path2" d="M 3.75 13.565 C 3.383 13.68 3.026 13.785 2.957 13.8 C 0.851 14.241 -0.555 17.864 0.472 20.203 C 0.852 21.069 2.077 22.5 2.438 22.5 C 2.564 22.5 2.667 22.566 2.667 22.647 C 2.667 22.728 2.798 22.837 2.958 22.89 C 3.119 22.942 3.587 23.185 4 23.428 C 5.079 24.065 6.815 25.072 7.542 25.481 C 7.885 25.675 8.429 25.983 8.75 26.167 C 9.071 26.35 9.579 26.639 9.879 26.809 C 10.179 26.979 11.345 27.654 12.47 28.309 C 13.595 28.964 14.587 29.5 14.675 29.5 C 14.762 29.5 14.834 29.556 14.835 29.625 C 14.835 29.694 15.004 29.831 15.21 29.93 C 15.706 30.17 16.941 30.866 18.63 31.856 C 20.621 33.025 21.038 33.167 22.489 33.167 C 26.186 33.167 28.557 29.46 27.021 26.083 C 26.684 25.344 25.321 23.833 24.99 23.833 C 24.922 23.833 23.742 23.168 22.37 22.355 C 20.997 21.542 19.472 20.661 18.979 20.398 C 18.486 20.135 18.046 19.881 18 19.835 C 17.899 19.733 17.237 19.371 15.25 18.335 C 14.425 17.905 12.305 16.723 10.539 15.708 C 6.315 13.281 5.488 13.02 3.75 13.565" stroke="none" fill="#4483f3" fill-rule="evenodd"/>
  <path id="path3" d="M 37.417 3.844 C 33.647 5.755 33.699 10.769 37.511 12.847 C 37.917 13.069 38.287 13.287 38.333 13.333 C 38.422 13.422 38.752 13.613 39.987 14.291 C 40.407 14.521 41.35 15.065 42.083 15.5 C 42.817 15.935 43.754 16.477 44.167 16.705 C 45.9 17.663 46.258 17.872 46.408 18.016 C 46.495 18.099 46.678 18.167 46.814 18.167 C 46.95 18.167 48.379 18.927 49.989 19.857 C 51.599 20.787 53.333 21.787 53.841 22.08 C 57.969 24.456 61.917 22.583 61.917 18.25 C 61.917 15.747 61.356 14.965 58.25 13.135 C 55.297 11.395 54.765 11.089 54.494 10.977 C 54.353 10.918 53.039 10.168 51.574 9.31 C 50.108 8.452 48.555 7.564 48.121 7.337 C 47.688 7.11 47.333 6.866 47.333 6.795 C 47.333 6.724 47.254 6.667 47.158 6.667 C 47.062 6.667 45.843 6.005 44.45 5.197 C 40.746 3.048 39.471 2.803 37.417 3.844" stroke="none" fill="#0c9c5c" fill-rule="evenodd"/>
  <path id="path4" d="M 76.912 18.25 C 76.912 24.208 76.933 26.622 76.958 23.613 C 76.984 20.604 76.984 15.729 76.958 12.78 C 76.933 9.83 76.912 12.292 76.912 18.25 M 162.205 21.333 C 162.205 21.654 162.24 21.785 162.282 21.625 C 162.323 21.465 162.323 21.202 162.282 21.042 C 162.24 20.881 162.205 21.012 162.205 21.333" stroke="none" fill="#6c6c74" fill-rule="evenodd"/>
  <path id="path5" stroke="none" fill="#84ac2c" fill-rule="evenodd"/>
  <path id="path6" stroke="none" fill="#946494" fill-rule="evenodd"/>
  <path id="path7" stroke="none" fill="#4ca444" fill-rule="evenodd"/>
  <path id="path8" stroke="none" fill="#5c6c98" fill-rule="evenodd"/>
</svg>